<svg width="148" height="203" fill="none" xmlns="http://www.w3.org/2000/svg"><path d="M137.76 121.806c.523 0 .782.389.782 1.166 0 .777-.259 1.165-.782 1.165-2.474 0-6.316-.128-11.526-.388s-8.987-.389-11.331-.389c-2.866 0-6.513.129-10.941.389-4.168.26-7.36.388-9.574.388-.52 0-.781-.388-.781-1.165s.26-1.166.781-1.166c4.82 0 8.336-.454 10.551-1.36 2.214-.906 3.321-2.46 3.321-4.662 0-1.813-.847-4.598-2.54-8.353L83.252 59.835H46.327l-16.802 39.63c-1.824 4.404-2.736 8.03-2.736 10.88 0 7.641 6.383 11.461 19.147 11.461.651 0 .977.389.977 1.166 0 .777-.326 1.165-.977 1.165-2.344 0-5.731-.128-10.16-.388-4.949-.26-9.247-.389-12.894-.389-3.387 0-7.294.129-11.722.389-3.908.26-7.164.388-9.77.388-.65 0-.976-.388-.976-1.165s.326-1.166.977-1.166c3.647 0 6.708-.648 9.182-1.942 2.605-1.425 5.015-3.821 7.23-7.188 2.344-3.497 4.884-8.483 7.619-14.959L66.645.973c.26-.389.717-.583 1.368-.583.651 0 1.042.194 1.172.583l46.108 96.55c4.429 9.584 8.206 16.059 11.332 19.427 3.126 3.237 6.837 4.856 11.135 4.856zm-89.675-66.05H81.3l-17.584-36.91-15.63 36.91z" fill="#A58677" fill-opacity=".2"/><path d="M103.947 123.499h-.001c-4.166.26-7.351.388-9.558.388-.188 0-.3-.064-.378-.18-.09-.134-.153-.367-.153-.735 0-.369.063-.601.153-.735.078-.116.19-.181.378-.181 4.826 0 8.384-.453 10.645-1.378h0c1.14-.467 2.013-1.108 2.6-1.932.588-.826.877-1.817.877-2.962 0-1.871-.868-4.699-2.562-8.456l-.002-.004-22.468-47.595-.067-.144H46.16l-.064.153-16.803 39.63v.002c-1.83 4.416-2.755 8.078-2.755 10.975 0 3.905 1.64 6.853 4.909 8.81 3.248 1.945 8.089 2.901 14.488 2.901.274 0 .438.08.541.202.11.131.186.354.186.714s-.076.583-.186.713c-.102.123-.267.202-.541.202-2.337 0-5.718-.128-10.145-.388h-.001c-4.953-.259-9.256-.389-12.908-.389-3.393 0-7.305.13-11.737.389h-.002c-3.904.26-7.155.388-9.752.388-.274 0-.439-.079-.541-.201-.11-.131-.186-.354-.186-.714s.076-.583.186-.714c.102-.122.267-.202.54-.202 3.676 0 6.78-.653 9.3-1.971l.003-.002c2.652-1.45 5.089-3.88 7.318-7.269 2.357-3.516 4.904-8.518 7.641-15l41.214-96.72c.2-.283.556-.454 1.147-.454.618 0 .858.181.935.412l.005.015.007.014 46.106 96.547.001.001c4.429 9.584 8.22 16.092 11.375 19.491l.003.003c3.171 3.284 6.946 4.933 11.315 4.933.189 0 .302.065.379.181.09.134.153.366.153.735s-.063.601-.153.735c-.077.116-.19.18-.379.18-2.467 0-6.304-.128-11.513-.388-5.211-.259-8.993-.389-11.344-.389-2.873 0-6.525.13-10.956.389zm-56.092-67.84l-.147.347h33.986l-.17-.358-17.583-36.91-.24-.502-.216.512-15.63 36.91z" stroke="#A69985" stroke-opacity=".3" stroke-width=".5"/><path d="M99.956 130.151c31.591 0 47.387 11.17 47.387 33.511 0 7.582-1.771 14.353-5.311 20.31-3.404 5.957-8.237 10.561-14.502 13.81-6.263 3.25-13.412 4.874-21.446 4.874-3.677 0-7.966-.203-12.868-.609-2.043-.136-4.494-.27-7.353-.406a194.18 194.18 0 00-9.192-.203l-13.889.203c-2.451.136-5.923.203-10.417.203-.272 0-.409-.406-.409-1.219 0-.812.137-1.218.409-1.218 5.174 0 8.987-.339 11.438-1.016 2.451-.812 4.153-2.167 5.107-4.061.953-1.895 1.43-4.875 1.43-8.937V91.36c0-4.062-.477-7.041-1.43-8.937-.817-1.895-2.451-3.181-4.903-3.858-2.314-.813-6.06-1.219-11.233-1.219-.409 0-.613-.406-.613-1.219 0-.812.204-1.218.613-1.218h80.475c.817 0 1.363.203 1.635.61.271.27.476.88.612 1.827l2.656 25.996c0 .407-.341.61-1.022.61-.68 0-1.158-.203-1.429-.61-1.363-7.582-4.222-13.54-8.579-17.872-4.221-4.333-9.464-6.5-15.728-6.5H99.752c-4.766 0-8.306.407-10.621 1.22-2.18.676-3.677 1.963-4.494 3.858-.817 1.76-1.225 4.604-1.225 8.53v38.589c6.4-.677 11.914-1.016 16.544-1.016zm2.043 68.85c10.893 0 18.791-2.437 23.693-7.312 4.902-5.01 7.353-12.592 7.353-22.747 0-12.456-3.268-21.325-9.804-26.605-6.536-5.417-15.932-8.124-28.187-8.124-4.085 0-7.966.27-11.642.812v50.368c0 4.739 1.225 8.191 3.676 10.358s7.421 3.25 14.911 3.25z" fill="#A58677" fill-opacity=".2"/><path d="M141.817 183.844l-.002.004c-3.38 5.914-8.177 10.484-14.4 13.712-6.223 3.229-13.332 4.846-21.331 4.846-3.668 0-7.95-.202-12.848-.608h-.004a399.044 399.044 0 00-7.358-.407 194.688 194.688 0 00-9.203-.203h-.003l-13.89.203h0-.01c-2.444.136-5.91.203-10.402.203a.358.358 0 01-.07-.134c-.055-.164-.09-.436-.09-.835 0-.398.035-.67.09-.834a.358.358 0 01.07-.134c5.178 0 9.019-.339 11.504-1.025v.001l.012-.004c2.5-.829 4.262-2.221 5.25-4.187.981-1.949 1.457-4.977 1.457-9.049V91.36c0-4.067-.475-7.093-1.453-9.042-.854-1.975-2.556-3.3-5.054-3.992-2.358-.825-6.136-1.23-11.308-1.23a.226.226 0 01-.13-.035.33.33 0 01-.107-.132c-.075-.15-.126-.408-.126-.802 0-.393.05-.65.126-.801a.33.33 0 01.107-.133.226.226 0 01.13-.034h80.475c.791 0 1.226.198 1.427.498l.014.02.017.018c.096.096.199.273.296.563.096.284.178.656.245 1.119l2.653 25.977a.249.249 0 01-.133.231c-.113.067-.314.117-.638.117-.605 0-.979-.171-1.193-.458-1.373-7.594-4.247-13.584-8.638-17.95-4.27-4.382-9.577-6.573-15.905-6.573H99.752c-4.77 0-8.344.405-10.7 1.231-2.237.696-3.794 2.027-4.643 3.994-.84 1.813-1.247 4.701-1.247 8.632v38.866l.276-.029c6.394-.676 11.9-1.014 16.518-1.014 15.774 0 27.56 2.79 35.396 8.332 7.821 5.53 11.741 13.825 11.741 24.929 0 7.541-1.761 14.267-5.276 20.182zm-15.949 8.023l.003-.003c4.965-5.074 7.424-12.731 7.424-22.922 0-12.493-3.278-21.451-9.895-26.799-6.598-5.466-16.058-8.18-28.346-8.18-4.096 0-7.99.271-11.679.815l-.213.032v50.583c0 4.777 1.235 8.313 3.76 10.545 1.271 1.124 3.173 1.949 5.679 2.495 2.508.546 5.643.818 9.398.818 10.922 0 18.9-2.443 23.869-7.384z" stroke="#A69985" stroke-opacity=".3" stroke-width=".5"/></svg>