<svg width="368" height="509" fill="none" xmlns="http://www.w3.org/2000/svg"><path d="M343.67 305.594c1.303 0 1.95.976 1.95 2.927 0 1.952-.647 2.928-1.95 2.928-6.176 0-15.766-.324-28.77-.976-13.004-.652-22.432-.976-28.284-.976-7.152 0-16.255.324-27.308.976-10.404.652-18.369.976-23.895.976-1.301 0-1.951-.976-1.951-2.928 0-1.951.65-2.927 1.951-2.927 12.028 0 20.806-1.14 26.333-3.416 5.526-2.277 8.29-6.18 8.29-11.71 0-4.554-2.113-11.548-6.339-20.981l-56.081-119.545h-92.167l-41.938 99.539c-4.551 11.06-6.827 20.168-6.827 27.325 0 19.192 15.93 28.788 47.79 28.788 1.625 0 2.438.976 2.438 2.927 0 1.952-.813 2.928-2.438 2.928-5.852 0-14.305-.324-25.358-.976-12.354-.652-23.082-.976-32.185-.976-8.453 0-18.206.324-29.26.976-9.752.652-17.88.976-24.382.976-1.626 0-2.438-.976-2.438-2.928 0-1.951.812-2.927 2.438-2.927 9.103 0 16.742-1.628 22.92-4.879 6.501-3.579 12.516-9.596 18.043-18.054 5.852-8.783 12.191-21.306 19.018-37.571L166.166 2.098c.65-.976 1.788-1.464 3.413-1.464 1.625 0 2.601.488 2.926 1.464l115.087 242.504c11.053 24.072 20.481 40.336 28.284 48.793 7.802 8.133 17.065 12.199 27.794 12.199zM119.838 139.696h82.902l-43.889-92.708-39.013 92.708z" fill="#A58677" fill-opacity=".1"/><path d="M259.292 310.224h.001c11.056-.653 20.164-.977 27.323-.977 5.859 0 15.292.324 28.297.977 13.003.652 22.588.975 28.757.975.579 0 .983-.211 1.256-.62.284-.428.444-1.101.444-2.058 0-.956-.16-1.629-.444-2.057-.273-.409-.677-.62-1.256-.62-10.8 0-20.128-4.097-27.975-12.275l-.003-.004c-7.832-8.489-17.274-24.786-28.328-48.859L172.279 2.205l-.006-.014-.005-.014c-.273-.819-1.098-1.293-2.689-1.293-1.566 0-2.603.464-3.193 1.333L63.501 245.187l195.791 65.037zm0 0c-10.402.652-18.361.975-23.879.975-.578 0-.982-.211-1.255-.62-.285-.428-.446-1.101-.446-2.058 0-.956.161-1.629.446-2.057.273-.409.677-.62 1.255-.62 12.035 0 20.854-1.139 26.428-3.434l-.095-.232m-2.454 8.046l2.454-8.046m0 0l.095.231c2.796-1.151 4.911-2.723 6.327-4.721 1.416-2.001 2.118-4.412 2.118-7.22 0-4.612-2.134-11.649-6.361-21.084l-.002-.004m-2.177 32.798l2.177-32.798m0 0l-56.08-119.544-.068-.144m56.148 119.688l-56.148-119.688m0 0h-.159m.159 0h-.159m0 0h-92.332m92.332 0h-92.332m0 0l-.065.153m.065-.153l-.065.153m0 0l-41.938 99.539-.001.002m41.939-99.541L73.28 249.386m0 0c-4.557 11.072-6.846 20.216-6.846 27.42 0 9.68 4.026 16.96 12.069 21.805 8.022 4.833 20.024 7.233 35.971 7.233.761 0 1.29.226 1.637.642.353.424.551 1.088.551 2.035 0 .948-.198 1.612-.551 2.036-.347.416-.876.642-1.637.642-5.844 0-14.291-.323-25.343-.975h-.002M73.28 249.386l15.85 60.838m0 0c-12.358-.653-23.09-.977-32.2-.977-8.458 0-18.216.324-29.273.977h-.002m61.474 0H27.655m0 0c-9.75.652-17.872.975-24.366.975-.761 0-1.29-.226-1.637-.642-.353-.424-.551-1.088-.551-2.036 0-.947.198-1.611.551-2.035.346-.416.876-.642 1.637-.642 9.131 0 16.814-1.633 23.036-4.908l.004-.002m1.326 9.29l-1.326-9.29m0 0c6.548-3.604 12.59-9.656 18.132-18.135m-18.132 18.135l18.132-18.135m0 0c5.864-8.802 12.21-21.342 19.04-37.612l-19.04 37.612zm75.147-143.2l-.146.347h83.673l-.169-.357-43.889-92.708-.24-.506-.217.516-39.012 92.708z" stroke="#A69985" stroke-opacity=".2" stroke-width=".5"/><path d="M249.309 326.553c78.852 0 118.278 28.057 118.278 84.169 0 19.043-4.42 36.05-13.255 51.012-8.498 14.962-20.561 26.526-36.197 34.688-15.635 8.161-33.479 12.242-53.531 12.242-9.177 0-19.883-.51-32.119-1.53-5.098-.341-11.216-.679-18.354-1.02-7.137-.342-14.785-.51-22.942-.51l-34.668.51c-6.117.341-14.784.51-26 .51-.68 0-1.02-1.02-1.02-3.061 0-2.04.34-3.06 1.02-3.06 12.915 0 22.432-.852 28.55-2.551 6.117-2.04 10.366-5.443 12.745-10.202 2.379-4.76 3.569-12.243 3.569-22.445V229.122c0-10.203-1.19-17.685-3.569-22.446-2.039-4.76-6.118-7.991-12.236-9.692-5.777-2.04-15.124-3.06-28.04-3.06-1.019 0-1.529-1.021-1.529-3.061 0-2.041.51-3.061 1.529-3.061h200.87c2.039 0 3.4.51 4.078 1.531.679.68 1.188 2.21 1.53 4.591l6.627 65.294c0 1.021-.851 1.531-2.549 1.531s-2.89-.51-3.568-1.531c-3.401-19.044-10.537-34.007-21.413-44.89-10.536-10.882-23.621-16.323-39.256-16.323h-29.06c-11.896 0-20.733 1.02-26.511 3.06-5.438 1.7-9.176 4.931-11.216 9.692-2.039 4.422-3.059 11.563-3.059 21.425v96.922c15.975-1.699 29.74-2.551 41.296-2.551zm5.098 172.929c27.19 0 46.904-6.121 59.139-18.364 12.236-12.584 18.354-31.627 18.354-57.133 0-31.285-8.157-53.562-24.471-66.825-16.315-13.604-39.767-20.404-70.356-20.404-10.196 0-19.883.678-29.06 2.04v126.509c0 11.901 3.059 20.573 9.177 26.016 6.118 5.442 18.524 8.161 37.217 8.161z" fill="#A58677" fill-opacity=".1"/><path d="M354.117 461.607l-.002.003c-8.474 14.919-20.501 26.45-36.096 34.59-15.594 8.141-33.397 12.214-53.415 12.214-9.168 0-19.867-.509-32.098-1.529h-.004c-5.101-.342-11.22-.679-18.359-1.021-7.142-.342-14.793-.51-22.954-.51h-.003l-34.668.51h-.01c-6.111.341-14.773.51-25.987.51-.174 0-.369-.117-.528-.594-.157-.471-.242-1.204-.242-2.217 0-1.013.085-1.745.242-2.216.159-.478.354-.594.528-.594 12.919 0 22.464-.852 28.616-2.56h.001l.012-.004c6.166-2.057 10.475-5.496 12.89-10.328 2.406-4.813 3.595-12.345 3.595-22.556V229.122c0-10.208-1.188-17.736-3.592-22.551-2.076-4.84-6.222-8.11-12.387-9.825-5.822-2.054-15.202-3.072-28.116-3.072a.922.922 0 01-.53-.15 1.192 1.192 0 01-.393-.477c-.229-.458-.356-1.177-.356-2.184 0-1.008.127-1.726.356-2.184.112-.225.246-.379.393-.477a.922.922 0 01.53-.15h200.87c2.012 0 3.263.505 3.87 1.419l.014.021.017.017c.3.3.581.81.831 1.56.248.745.458 1.705.628 2.885v.005l6.625 65.271c-.003.419-.172.715-.516.922-.367.22-.951.347-1.783.347-1.624 0-2.711-.479-3.332-1.377-3.41-19.056-10.561-34.053-21.471-44.969-10.585-10.932-23.735-16.398-39.434-16.398h-29.06c-11.9 0-20.77 1.019-26.59 3.073-5.496 1.72-9.294 4.996-11.365 9.828-2.062 4.473-3.081 11.66-3.081 21.526v97.2l.277-.029c15.968-1.699 29.724-2.55 41.269-2.55 39.404 0 68.912 7.012 88.564 20.996 19.636 13.974 29.464 34.933 29.464 62.923 0 19.003-4.41 35.965-13.22 50.885zm-40.394 19.688l.003-.002c12.298-12.649 18.424-31.766 18.424-57.308 0-31.322-8.167-53.688-24.563-67.018-16.375-13.655-39.892-20.461-70.514-20.461-10.207 0-19.906.679-29.096 2.043l-.214.032v126.724c0 11.939 3.069 20.694 9.261 26.202 3.104 2.762 7.782 4.815 14.005 6.18 6.227 1.365 14.021 2.045 23.378 2.045 27.22 0 47.013-6.127 59.316-18.437z" stroke="#A69985" stroke-opacity=".2" stroke-width=".5"/></svg>