<svg width="72" height="99" fill="none" xmlns="http://www.w3.org/2000/svg"><path d="M66.792 59.363c.252 0 .377.188.377.566 0 .377-.125.566-.377.566-1.196 0-3.052-.063-5.57-.189-2.517-.126-4.342-.188-5.475-.188-1.385 0-3.147.062-5.287.188-2.014.127-3.556.19-4.625.19-.252 0-.378-.19-.378-.567 0-.378.126-.566.378-.566 2.328 0 4.027-.22 5.097-.66 1.07-.441 1.605-1.196 1.605-2.265 0-.881-.409-2.233-1.227-4.058L40.454 29.263H22.61l-8.118 19.249c-.881 2.138-1.322 3.9-1.322 5.284 0 3.711 3.084 5.567 9.252 5.567.314 0 .472.188.472.566 0 .377-.158.566-.472.566-1.133 0-2.77-.063-4.91-.189a120.389 120.389 0 00-6.23-.188c-1.636 0-3.524.062-5.664.188-1.888.127-3.462.19-4.72.19-.315 0-.472-.19-.472-.567 0-.378.157-.566.472-.566 1.762 0 3.24-.315 4.437-.944 1.258-.692 2.423-1.855 3.493-3.491 1.132-1.698 2.36-4.12 3.681-7.266L32.43.672c.125-.188.346-.283.66-.283.315 0 .504.095.567.283l22.279 46.896c2.14 4.655 3.965 7.8 5.475 9.436 1.51 1.572 3.304 2.359 5.38 2.359zM23.462 27.28H39.51L31.013 9.353l-7.552 17.928z" fill="#A58677" fill-opacity=".8"/><path d="M50.446 60.057h-.001c-2.013.126-3.548.188-4.61.188a.12.12 0 01-.054-.009.056.056 0 01-.022-.021c-.023-.034-.052-.117-.052-.286 0-.169.03-.252.052-.286a.056.056 0 01.022-.021.12.12 0 01.054-.01c2.334 0 4.075-.219 5.192-.678h0c.568-.234 1.012-.559 1.313-.983.302-.427.447-.935.447-1.513 0-.939-.43-2.334-1.249-4.16h0l-.002-.004L40.68 29.156l-.068-.143H22.446l-.065.152-8.119 19.25v.001c-.887 2.152-1.34 3.948-1.34 5.38 0 1.94.813 3.415 2.433 4.39 1.6.962 3.967 1.427 7.068 1.427.105 0 .143.03.162.051.025.031.06.105.06.265 0 .16-.035.234-.06.264-.019.023-.057.052-.162.052-1.126 0-2.756-.062-4.895-.188h-.001c-2.395-.127-4.476-.19-6.244-.19a97.82 97.82 0 00-5.679.19h-.002c-1.885.126-3.452.188-4.703.188-.106 0-.144-.03-.162-.052-.026-.03-.06-.104-.06-.264 0-.16.034-.234.06-.265.018-.022.056-.051.162-.051 1.79 0 3.312-.32 4.553-.972h0l.004-.003c1.305-.717 2.497-1.915 3.581-3.572 1.146-1.718 2.38-4.156 3.704-7.307L32.649.795c.066-.087.19-.156.441-.156.28 0 .319.081.33.112l.004.015.007.014 22.278 46.892v.002c2.14 4.655 3.979 7.832 5.518 9.5h0l.004.003c1.555 1.619 3.412 2.436 5.56 2.436.032 0 .048.006.054.009a.056.056 0 01.022.02c.023.035.052.118.052.287 0 .169-.03.252-.052.286a.055.055 0 01-.022.021.12.12 0 01-.053.01c-1.19 0-3.04-.063-5.557-.19-2.518-.125-4.349-.188-5.488-.188-1.392 0-3.159.063-5.301.189zM23.23 27.184l-.147.347h16.822l-.17-.357L31.24 9.246 31 8.741l-.216.515-7.552 17.928z" stroke="#A69985" stroke-opacity=".8" stroke-width=".5"/><path d="M48.525 63.416c15.265 0 22.897 5.426 22.897 16.277 0 3.683-.855 6.972-2.566 9.865-1.645 2.893-3.98 5.13-7.007 6.708-3.027 1.578-6.481 2.367-10.363 2.367-1.777 0-3.85-.098-6.218-.296a190.63 190.63 0 00-3.553-.197 93.256 93.256 0 00-4.441-.099l-6.711.1c-1.184.065-2.862.098-5.034.098-.131 0-.197-.198-.197-.592 0-.395.066-.592.197-.592 2.5 0 4.343-.165 5.527-.493 1.185-.395 2.007-1.053 2.468-1.973.46-.92.69-2.368.69-4.34V44.574c0-1.973-.23-3.42-.69-4.34-.395-.921-1.185-1.546-2.369-1.875-1.119-.395-2.928-.592-5.428-.592-.198 0-.296-.197-.296-.592 0-.394.098-.592.296-.592h38.885c.395 0 .659.1.79.296.131.132.23.428.296.888l1.283 12.627c0 .197-.165.296-.494.296-.328 0-.56-.099-.69-.296-.659-3.683-2.04-6.577-4.146-8.68-2.04-2.105-4.572-3.158-7.599-3.158h-5.626c-2.302 0-4.013.198-5.132.592-1.052.33-1.776.954-2.17 1.875-.396.855-.593 2.236-.593 4.143V63.91c3.092-.329 5.757-.494 7.994-.494zm.987 33.442c5.264 0 9.08-1.184 11.449-3.552 2.368-2.433 3.552-6.116 3.552-11.048 0-6.05-1.579-10.358-4.737-12.923-3.158-2.63-7.698-3.946-13.62-3.946a38.41 38.41 0 00-5.625.395v24.464c0 2.302.592 3.979 1.776 5.031 1.185 1.053 3.586 1.579 7.205 1.579z" fill="#A58677" fill-opacity=".8"/><path d="M68.64 89.43h0l-.001.004c-1.621 2.85-3.92 5.053-6.906 6.61-2.986 1.557-6.4 2.34-10.247 2.34-1.768 0-3.833-.099-6.197-.296h0-.004a201.75 201.75 0 00-3.558-.198 93.53 93.53 0 00-4.453-.099h-.004l-6.71.1v-.001h-.011c-1.162.065-2.807.098-4.937.099a1.46 1.46 0 01-.03-.342c0-.168.013-.278.03-.342 2.463-.004 4.306-.168 5.511-.502h0l.012-.004c1.233-.41 2.116-1.107 2.612-2.098.488-.975.718-2.47.718-4.453V44.575c0-1.978-.23-3.471-.715-4.446-.43-1-1.288-1.664-2.52-2.008-1.16-.407-3.001-.602-5.496-.603a.167.167 0 01-.006-.01c-.023-.046-.047-.147-.047-.332 0-.184.024-.285.047-.332a.167.167 0 01.006-.01h38.878c.368 0 .521.094.582.185l.013.02.018.018a.6.6 0 01.112.223c.043.128.081.3.113.519l1.28 12.603h-.001c-.025.015-.094.039-.242.039-.247 0-.38-.064-.455-.149-.669-3.691-2.065-6.616-4.202-8.753-2.089-2.154-4.687-3.232-7.778-3.232h-5.626c-2.306 0-4.05.197-5.21.605-1.112.348-1.895 1.018-2.321 2.01-.418.907-.614 2.333-.614 4.245v19.021l.276-.03c3.087-.328 5.742-.492 7.968-.492 7.61 0 13.273 1.354 17.028 4.023 3.74 2.658 5.62 6.645 5.62 12.004 0 3.642-.847 6.886-2.532 9.738zm-7.503 4.053l.003-.002c2.43-2.498 3.623-6.255 3.623-11.223 0-6.087-1.588-10.484-4.828-13.116-3.22-2.681-7.824-4.003-13.779-4.003a38.62 38.62 0 00-5.662.398l-.213.031v24.68c0 2.34.602 4.1 1.86 5.218.637.566 1.58.974 2.802 1.241 1.225.269 2.75.4 4.57.4 5.292 0 9.188-1.189 11.624-3.624z" stroke="#A69985" stroke-opacity=".8" stroke-width=".5"/></svg>